<svg xmlns="http://www.w3.org/2000/svg" id="mindmap" class="markmap mindmap" style=""><style>.markmap {
  --markmap-max-width: 9999px;
  --markmap-a-color: #0097e6;
  --markmap-a-hover-color: #00a8ff;
  --markmap-code-bg: #f0f0f0;
  --markmap-code-color: #555;
  --markmap-highlight-bg: #ffeaa7;
  --markmap-table-border: 1px solid currentColor;
  --markmap-font: 300 16px/20px sans-serif;
  --markmap-circle-open-bg: #fff;
  --markmap-text-color: #333;
  --markmap-highlight-node-bg: #ff02;

  font: var(--markmap-font);
  color: var(--markmap-text-color);
}

  .markmap-link {
    fill: none;
  }

  .markmap-node &gt; circle {
      cursor: pointer;
    }

  .markmap-foreign {
    display: inline-block;
  }

  .markmap-foreign p {
      margin: 0;
    }

  .markmap-foreign a {
      color: var(--markmap-a-color);
    }

  .markmap-foreign a:hover {
        color: var(--markmap-a-hover-color);
      }

  .markmap-foreign code {
      padding: 0.25em;
      font-size: calc(1em - 2px);
      color: var(--markmap-code-color);
      background-color: var(--markmap-code-bg);
      border-radius: 2px;
    }

  .markmap-foreign pre {
      margin: 0;
    }

  .markmap-foreign pre &gt; code {
        display: block;
      }

  .markmap-foreign del {
      text-decoration: line-through;
    }

  .markmap-foreign em {
      font-style: italic;
    }

  .markmap-foreign strong {
      font-weight: bold;
    }

  .markmap-foreign mark {
      background: var(--markmap-highlight-bg);
    }

  .markmap-foreign table,
    .markmap-foreign th,
    .markmap-foreign td {
      border-collapse: collapse;
      border: var(--markmap-table-border);
    }

  .markmap-foreign img {
      display: inline-block;
    }

  .markmap-foreign svg {
      fill: currentColor;
    }

  .markmap-foreign &gt; div {
      width: var(--markmap-max-width);
      text-align: left;
    }

  .markmap-foreign &gt; div &gt; div {
        display: inline-block;
      }

  .markmap-highlight rect {
    fill: var(--markmap-highlight-node-bg);
  }

.markmap-dark .markmap {
  --markmap-code-bg: #1a1b26;
  --markmap-code-color: #ddd;
  --markmap-circle-open-bg: #444;
  --markmap-text-color: #eee;
}
</style><g transform="translate(403.08059942444027,179.1215374289324) scale(0.4150207061135678)"><path class="markmap-link" data-depth="2" data-path="1.2" d="M99,11.25C139,11.25,139,-325.32,179,-325.32" stroke-width="1.75" stroke="rgb(255, 127, 14)"/><path class="markmap-link" data-depth="4" data-path="1.2.6.8" d="M432,-309.82C472,-309.82,472,-294.82,512,-294.82" stroke-width="1.1875" stroke="rgb(188, 189, 34)"/><path class="markmap-link" data-depth="3" data-path="1.2.3" d="M296,-325.32C336,-325.32,336,-387.477,376,-387.477" stroke-width="1.375" stroke="rgb(31, 119, 180)"/><path class="markmap-link" data-depth="3" data-path="1.2.5" d="M296,-325.32C336,-325.32,336,-356.289,376,-356.289" stroke-width="1.375" stroke="rgb(44, 160, 44)"/><path class="markmap-link" data-depth="3" data-path="1.2.6" d="M296,-325.32C336,-325.32,336,-309.82,376,-309.82" stroke-width="1.375" stroke="rgb(214, 39, 40)"/><path class="markmap-link" data-depth="3" data-path="1.2.9" d="M296,-325.32C336,-325.32,336,-263.539,376,-263.539" stroke-width="1.375" stroke="rgb(23, 190, 207)"/><path class="markmap-link" data-depth="4" data-path="1.2.3.4" d="M544,-387.477C584,-387.477,584,-387.57,624,-387.57" stroke-width="1.1875" stroke="rgb(227, 119, 194)"/><path class="markmap-link" data-depth="4" data-path="1.2.6.7" d="M432,-309.82C472,-309.82,472,-323.008,512,-323.008" stroke-width="1.1875" stroke="rgb(127, 127, 127)"/><path class="markmap-link" data-depth="2" data-path="1.10" d="M99,11.25C139,11.25,139,-161.32,179,-161.32" stroke-width="1.75" stroke="rgb(23, 190, 207)"/><path class="markmap-link" data-depth="4" data-path="1.10.13.14" d="M407,-148.227C447,-148.227,447,-174.508,487,-174.508" stroke-width="1.1875" stroke="rgb(127, 127, 127)"/><path class="markmap-link" data-depth="4" data-path="1.10.13.15" d="M407,-148.227C447,-148.227,447,-148.32,487,-148.32" stroke-width="1.1875" stroke="rgb(148, 103, 189)"/><path class="markmap-link" data-depth="4" data-path="1.10.13.16" d="M407,-148.227C447,-148.227,447,-122.133,487,-122.133" stroke-width="1.1875" stroke="rgb(255, 127, 14)"/><path class="markmap-link" data-depth="4" data-path="1.10.17.18" d="M689,-90.852C729,-90.852,729,-130.227,769,-130.227" stroke-width="1.1875" stroke="rgb(214, 39, 40)"/><path class="markmap-link" data-depth="4" data-path="1.10.17.19" d="M689,-90.852C729,-90.852,729,-104.039,769,-104.039" stroke-width="1.1875" stroke="rgb(148, 103, 189)"/><path class="markmap-link" data-depth="4" data-path="1.10.17.20" d="M689,-90.852C729,-90.852,729,-77.852,769,-77.852" stroke-width="1.1875" stroke="rgb(140, 86, 75)"/><path class="markmap-link" data-depth="4" data-path="1.10.17.21" d="M689,-90.852C729,-90.852,729,-51.664,769,-51.664" stroke-width="1.1875" stroke="rgb(227, 119, 194)"/><path class="markmap-link" data-depth="3" data-path="1.10.11" d="M267,-161.32C307,-161.32,307,-232.164,347,-232.164" stroke-width="1.375" stroke="rgb(255, 127, 14)"/><path class="markmap-link" data-depth="3" data-path="1.10.12" d="M267,-161.32C307,-161.32,307,-205.789,347,-205.789" stroke-width="1.375" stroke="rgb(214, 39, 40)"/><path class="markmap-link" data-depth="3" data-path="1.10.13" d="M267,-161.32C307,-161.32,307,-148.227,347,-148.227" stroke-width="1.375" stroke="rgb(140, 86, 75)"/><path class="markmap-link" data-depth="3" data-path="1.10.17" d="M267,-161.32C307,-161.32,307,-90.852,347,-90.852" stroke-width="1.375" stroke="rgb(44, 160, 44)"/><path class="markmap-link" data-depth="2" data-path="1.22" d="M99,11.25C139,11.25,139,24.555,179,24.555" stroke-width="1.75" stroke="rgb(227, 119, 194)"/><path class="markmap-link" data-depth="3" data-path="1.22.23" d="M263,24.555C303,24.555,303,-59.477,343,-59.477" stroke-width="1.375" stroke="rgb(188, 189, 34)"/><path class="markmap-link" data-depth="3" data-path="1.22.24" d="M263,24.555C303,24.555,303,-33.102,343,-33.102" stroke-width="1.375" stroke="rgb(23, 190, 207)"/><path class="markmap-link" data-depth="3" data-path="1.22.25" d="M263,24.555C303,24.555,303,-6.727,343,-6.727" stroke-width="1.375" stroke="rgb(255, 127, 14)"/><path class="markmap-link" data-depth="4" data-path="1.22.27.28" d="M624,50.836C664,50.836,664,24.555,704,24.555" stroke-width="1.1875" stroke="rgb(227, 119, 194)"/><path class="markmap-link" data-depth="4" data-path="1.22.27.29" d="M624,50.836C664,50.836,664,50.742,704,50.742" stroke-width="1.1875" stroke="rgb(127, 127, 127)"/><path class="markmap-link" data-depth="4" data-path="1.22.27.30" d="M624,50.836C664,50.836,664,76.93,704,76.93" stroke-width="1.1875" stroke="rgb(188, 189, 34)"/><path class="markmap-link" data-depth="3" data-path="1.22.27" d="M263,24.555C303,24.555,303,50.836,343,50.836" stroke-width="1.375" stroke="rgb(23, 190, 207)"/><path class="markmap-link" data-depth="4" data-path="1.22.25.26" d="M649,-6.727C689,-6.727,689,-6.82,729,-6.82" stroke-width="1.1875" stroke="rgb(23, 190, 207)"/><path class="markmap-link" data-depth="4" data-path="1.32.33.34" d="M489,139.586C529,139.586,529,139.492,569,139.492" stroke-width="1.1875" stroke="rgb(188, 189, 34)"/><path class="markmap-link" data-depth="3" data-path="1.32.33" d="M301,179.336C341,179.336,341,139.586,381,139.586" stroke-width="1.375" stroke="rgb(127, 127, 127)"/><path class="markmap-link" data-depth="3" data-path="1.32.35" d="M301,179.336C341,179.336,341,165.961,381,165.961" stroke-width="1.375" stroke="rgb(23, 190, 207)"/><path class="markmap-link" data-depth="3" data-path="1.32.36" d="M301,179.336C341,179.336,341,192.336,381,192.336" stroke-width="1.375" stroke="rgb(31, 119, 180)"/><path class="markmap-link" data-depth="3" data-path="1.32.37" d="M301,179.336C341,179.336,341,218.711,381,218.711" stroke-width="1.375" stroke="rgb(255, 127, 14)"/><path class="markmap-link" data-depth="2" data-path="1.32" d="M99,11.25C139,11.25,139,179.336,179,179.336" stroke-width="1.75" stroke="rgb(227, 119, 194)"/><path class="markmap-link" data-depth="3" data-path="1.22.31" d="M263,24.555C303,24.555,303,108.211,343,108.211" stroke-width="1.375" stroke="rgb(140, 86, 75)"/><path class="markmap-link" data-depth="2" data-path="1.38" d="M99,11.25C139,11.25,139,347.07,179,347.07" stroke-width="1.75" stroke="rgb(44, 160, 44)"/><path class="markmap-link" data-depth="4" data-path="1.38.39.40" d="M535,250.086C575,250.086,575,249.992,615,249.992" stroke-width="1.1875" stroke="rgb(127, 127, 127)"/><path class="markmap-link" data-depth="4" data-path="1.38.41.42" d="M532,294.555C572,294.555,572,281.367,612,281.367" stroke-width="1.1875" stroke="rgb(255, 127, 14)"/><path class="markmap-link" data-depth="4" data-path="1.38.44.45" d="M615,339.836C655,339.836,655,340.742,695,340.742" stroke-width="1.1875" stroke="rgb(140, 86, 75)"/><path class="markmap-link" data-depth="4" data-path="1.38.41.43" d="M532,294.555C572,294.555,572,307.555,612,307.555" stroke-width="1.1875" stroke="rgb(148, 103, 189)"/><path class="markmap-link" data-depth="3" data-path="1.38.39" d="M309,347.07C349,347.07,349,250.086,389,250.086" stroke-width="1.375" stroke="rgb(214, 39, 40)"/><path class="markmap-link" data-depth="3" data-path="1.38.41" d="M309,347.07C349,347.07,349,294.555,389,294.555" stroke-width="1.375" stroke="rgb(140, 86, 75)"/><path class="markmap-link" data-depth="3" data-path="1.38.44" d="M309,347.07C349,347.07,349,339.836,389,339.836" stroke-width="1.375" stroke="rgb(31, 119, 180)"/><path class="markmap-link" data-depth="4" data-path="1.38.48.49" d="M453,443.68C493,443.68,493,404.305,533,404.305" stroke-width="1.1875" stroke="rgb(148, 103, 189)"/><path class="markmap-link" data-depth="4" data-path="1.38.48.50" d="M453,443.68C493,443.68,493,430.492,533,430.492" stroke-width="1.1875" stroke="rgb(140, 86, 75)"/><path class="markmap-link" data-depth="4" data-path="1.38.48.51" d="M453,443.68C493,443.68,493,456.68,533,456.68" stroke-width="1.1875" stroke="rgb(227, 119, 194)"/><path class="markmap-link" data-depth="4" data-path="1.38.48.52" d="M453,443.68C493,443.68,493,482.867,533,482.867" stroke-width="1.1875" stroke="rgb(127, 127, 127)"/><path class="markmap-link" data-depth="3" data-path="1.38.46" d="M309,347.07C349,347.07,349,373.023,389,373.023" stroke-width="1.375" stroke="rgb(227, 119, 194)"/><path class="markmap-link" data-depth="3" data-path="1.38.48" d="M309,347.07C349,347.07,349,443.68,389,443.68" stroke-width="1.375" stroke="rgb(214, 39, 40)"/><path class="markmap-link" data-depth="4" data-path="1.38.46.47" d="M634,373.023C674,373.023,674,373.93,714,373.93" stroke-width="1.1875" stroke="rgb(44, 160, 44)"/><g class="markmap-highlight"><rect x="706.4879986683283" y="343.82393616832826" width="102.02400266334345" height="37.02400266334345"/></g><g data-depth="4" data-path="1.2.3.4" class="markmap-node" transform="translate(624, -408.1640625)"><line stroke="#e377c2" stroke-width="1.1875" x1="-1" x2="241" y1="20.59375" y2="20.59375"/><foreignObject class="markmap-foreign" x="8" y="0" style="opacity: 1;" width="223" height="20"><div xmlns="http://www.w3.org/1999/xhtml"><div xmlns="http://www.w3.org/1999/xhtml">.../skills/mySkillName/SKILL.md</div></div></foreignObject></g><g data-depth="3" data-path="1.2.3" class="markmap-node" transform="translate(376, -408.1640625)"><line stroke="#1f77b4" stroke-width="1.375" x1="-1" x2="170" y1="20.6875" y2="20.6875"/><circle stroke-width="1.5" r="6" stroke="#1f77b4" fill="var(--markmap-circle-open-bg)" cx="168" cy="20.6875"/><foreignObject class="markmap-foreign" x="8" y="0" style="opacity: 1;" width="152" height="20"><div xmlns="http://www.w3.org/1999/xhtml"><div xmlns="http://www.w3.org/1999/xhtml">folders of instructions</div></div></foreignObject></g><g data-depth="3" data-path="1.2.5" class="markmap-node" transform="translate(376, -376.9765625)"><line stroke="#2ca02c" stroke-width="1.375" x1="-1" x2="309" y1="20.6875" y2="20.6875"/><foreignObject class="markmap-foreign" x="8" y="0" style="opacity: 1;" width="291" height="20"><div xmlns="http://www.w3.org/1999/xhtml"><div xmlns="http://www.w3.org/1999/xhtml">use description to match skills to request</div></div></foreignObject></g><g data-depth="4" data-path="1.2.6.7" class="markmap-node" transform="translate(512, -345.6015625)"><line stroke="#7f7f7f" stroke-width="1.1875" x1="-1" x2="196" y1="22.59375" y2="22.59375"/><foreignObject class="markmap-foreign" x="8" y="0" style="opacity: 1;" width="178" height="22"><div xmlns="http://www.w3.org/1999/xhtml"><div xmlns="http://www.w3.org/1999/xhtml"><code>~/.claude/skills</code> (personal)</div></div></foreignObject></g><g data-depth="4" data-path="1.2.6.8" class="markmap-node" transform="translate(512, -317.4140625)"><line stroke="#bcbd22" stroke-width="1.1875" x1="-1" x2="171" y1="22.59375" y2="22.59375"/><foreignObject class="markmap-foreign" x="8" y="0" style="opacity: 1;" width="153" height="22"><div xmlns="http://www.w3.org/1999/xhtml"><div xmlns="http://www.w3.org/1999/xhtml"><code>&lt;project&gt;/.claude/skills</code></div></div></foreignObject></g><g data-depth="3" data-path="1.2.6" class="markmap-node" transform="translate(376, -330.5078125)"><line stroke="#d62728" stroke-width="1.375" x1="-1" x2="58" y1="20.6875" y2="20.6875"/><circle stroke-width="1.5" r="6" stroke="#d62728" fill="var(--markmap-circle-open-bg)" cx="56" cy="20.6875"/><foreignObject class="markmap-foreign" x="8" y="0" style="opacity: 1;" width="40" height="20"><div xmlns="http://www.w3.org/1999/xhtml"><div xmlns="http://www.w3.org/1999/xhtml">paths</div></div></foreignObject></g><g data-depth="3" data-path="1.2.9" class="markmap-node" transform="translate(376, -284.2265625)"><line stroke="#17becf" stroke-width="1.375" x1="-1" x2="135" y1="20.6875" y2="20.6875"/><foreignObject class="markmap-foreign" x="8" y="0" style="opacity: 1;" width="117" height="20"><div xmlns="http://www.w3.org/1999/xhtml"><div xmlns="http://www.w3.org/1999/xhtml">load on demand</div></div></foreignObject></g><g data-depth="2" data-path="1.2" class="markmap-node" transform="translate(179, -346.1953125)"><line stroke="#ff7f0e" stroke-width="1.75" x1="-1" x2="119" y1="20.875" y2="20.875"/><foreignObject class="markmap-foreign" x="8" y="0" style="opacity: 1;" width="101" height="20"><div xmlns="http://www.w3.org/1999/xhtml"><div xmlns="http://www.w3.org/1999/xhtml">Fundamentals</div></div></foreignObject><circle stroke-width="1.5" r="6" stroke="#ff7f0e" fill="var(--markmap-circle-open-bg)" cx="117" cy="20.875"/></g><g data-depth="3" data-path="1.10.11" class="markmap-node" transform="translate(347, -252.8515625)"><line stroke="#ff7f0e" stroke-width="1.375" x1="-1" x2="144" y1="20.6875" y2="20.6875"/><foreignObject class="markmap-foreign" x="8" y="0" style="opacity: 1;" width="126" height="20"><div xmlns="http://www.w3.org/1999/xhtml"><div xmlns="http://www.w3.org/1999/xhtml">*name = identifier</div></div></foreignObject></g><g data-depth="3" data-path="1.10.12" class="markmap-node" transform="translate(347, -226.4765625)"><line stroke="#d62728" stroke-width="1.375" x1="-1" x2="222" y1="20.6875" y2="20.6875"/><foreignObject class="markmap-foreign" x="8" y="0" style="opacity: 1;" width="204" height="20"><div xmlns="http://www.w3.org/1999/xhtml"><div xmlns="http://www.w3.org/1999/xhtml">*description = when to use it</div></div></foreignObject></g><g data-depth="4" data-path="1.10.13.14" class="markmap-node" transform="translate(487, -195.1015625)"><line stroke="#7f7f7f" stroke-width="1.1875" x1="-1" x2="66" y1="20.59375" y2="20.59375"/><foreignObject class="markmap-foreign" x="8" y="0" style="opacity: 1;" width="48" height="20"><div xmlns="http://www.w3.org/1999/xhtml"><div xmlns="http://www.w3.org/1999/xhtml">sonnet</div></div></foreignObject></g><g data-depth="4" data-path="1.10.13.15" class="markmap-node" transform="translate(487, -168.9140625)"><line stroke="#9467bd" stroke-width="1.1875" x1="-1" x2="54" y1="20.59375" y2="20.59375"/><foreignObject class="markmap-foreign" x="8" y="0" style="opacity: 1;" width="36" height="20"><div xmlns="http://www.w3.org/1999/xhtml"><div xmlns="http://www.w3.org/1999/xhtml">opus</div></div></foreignObject></g><g data-depth="4" data-path="1.10.13.16" class="markmap-node" transform="translate(487, -142.7265625)"><line stroke="#ff7f0e" stroke-width="1.1875" x1="-1" x2="56" y1="20.59375" y2="20.59375"/><foreignObject class="markmap-foreign" x="8" y="0" style="opacity: 1;" width="38" height="20"><div xmlns="http://www.w3.org/1999/xhtml"><div xmlns="http://www.w3.org/1999/xhtml">hiaku</div></div></foreignObject></g><g data-depth="3" data-path="1.10.13" class="markmap-node" transform="translate(347, -168.9140625)"><line stroke="#8c564b" stroke-width="1.375" x1="-1" x2="62" y1="20.6875" y2="20.6875"/><circle stroke-width="1.5" r="6" stroke="#8c564b" fill="var(--markmap-circle-open-bg)" cx="60" cy="20.6875"/><foreignObject class="markmap-foreign" x="8" y="0" style="opacity: 1;" width="44" height="20"><div xmlns="http://www.w3.org/1999/xhtml"><div xmlns="http://www.w3.org/1999/xhtml">model</div></div></foreignObject></g><g data-depth="4" data-path="1.10.17.18" class="markmap-node" transform="translate(769, -150.8203125)"><line stroke="#d62728" stroke-width="1.1875" x1="-1" x2="56" y1="20.59375" y2="20.59375"/><foreignObject class="markmap-foreign" x="8" y="0" style="opacity: 1;" width="38" height="20"><div xmlns="http://www.w3.org/1999/xhtml"><div xmlns="http://www.w3.org/1999/xhtml">Read</div></div></foreignObject></g><g data-depth="4" data-path="1.10.17.19" class="markmap-node" transform="translate(769, -124.6328125)"><line stroke="#9467bd" stroke-width="1.1875" x1="-1" x2="54" y1="20.59375" y2="20.59375"/><foreignObject class="markmap-foreign" x="8" y="0" style="opacity: 1;" width="36" height="20"><div xmlns="http://www.w3.org/1999/xhtml"><div xmlns="http://www.w3.org/1999/xhtml">Grep</div></div></foreignObject></g><g data-depth="4" data-path="1.10.17.20" class="markmap-node" transform="translate(769, -98.4453125)"><line stroke="#8c564b" stroke-width="1.1875" x1="-1" x2="53" y1="20.59375" y2="20.59375"/><foreignObject class="markmap-foreign" x="8" y="0" style="opacity: 1;" width="35" height="20"><div xmlns="http://www.w3.org/1999/xhtml"><div xmlns="http://www.w3.org/1999/xhtml">Glob</div></div></foreignObject></g><g data-depth="4" data-path="1.10.17.21" class="markmap-node" transform="translate(769, -72.2578125)"><line stroke="#e377c2" stroke-width="1.1875" x1="-1" x2="54" y1="20.59375" y2="20.59375"/><foreignObject class="markmap-foreign" x="8" y="0" style="opacity: 1;" width="36" height="20"><div xmlns="http://www.w3.org/1999/xhtml"><div xmlns="http://www.w3.org/1999/xhtml">Bash</div></div></foreignObject></g><g data-depth="3" data-path="1.10.17" class="markmap-node" transform="translate(347, -111.5390625)"><line stroke="#2ca02c" stroke-width="1.375" x1="-1" x2="344" y1="20.6875" y2="20.6875"/><circle stroke-width="1.5" r="6" stroke="#2ca02c" fill="var(--markmap-circle-open-bg)" cx="342" cy="20.6875"/><foreignObject class="markmap-foreign" x="8" y="0" style="opacity: 1;" width="326" height="20"><div xmlns="http://www.w3.org/1999/xhtml"><div xmlns="http://www.w3.org/1999/xhtml">allowed-tools = restricts what Claude can use</div></div></foreignObject></g><g data-depth="2" data-path="1.10" class="markmap-node" transform="translate(179, -182.1953125)"><line stroke="#17becf" stroke-width="1.75" x1="-1" x2="90" y1="20.875" y2="20.875"/><foreignObject class="markmap-foreign" x="8" y="0" style="opacity: 1;" width="72" height="20"><div xmlns="http://www.w3.org/1999/xhtml"><div xmlns="http://www.w3.org/1999/xhtml">Anathomy</div></div></foreignObject><circle stroke-width="1.5" r="6" stroke="#17becf" fill="var(--markmap-circle-open-bg)" cx="88" cy="20.875"/></g><g data-depth="3" data-path="1.22.23" class="markmap-node" transform="translate(343, -80.1640625)"><line stroke="#bcbd22" stroke-width="1.375" x1="-1" x2="174" y1="20.6875" y2="20.6875"/><foreignObject class="markmap-foreign" x="8" y="0" style="opacity: 1;" width="156" height="20"><div xmlns="http://www.w3.org/1999/xhtml"><div xmlns="http://www.w3.org/1999/xhtml">via git(.claude/skills/*)</div></div></foreignObject></g><g data-depth="3" data-path="1.22.24" class="markmap-node" transform="translate(343, -53.7890625)"><line stroke="#17becf" stroke-width="1.375" x1="-1" x2="213" y1="20.6875" y2="20.6875"/><foreignObject class="markmap-foreign" x="8" y="0" style="opacity: 1;" width="195" height="20"><div xmlns="http://www.w3.org/1999/xhtml"><div xmlns="http://www.w3.org/1999/xhtml">plugins(not load skills auto)</div></div></foreignObject></g><g data-depth="4" data-path="1.22.25.26" class="markmap-node" transform="translate(729, -27.4140625)"><line stroke="#17becf" stroke-width="1.1875" x1="-1" x2="181" y1="20.59375" y2="20.59375"/><foreignObject class="markmap-foreign" x="8" y="0" style="opacity: 1;" width="163" height="20"><div xmlns="http://www.w3.org/1999/xhtml"><div xmlns="http://www.w3.org/1999/xhtml">managed-settings.json</div></div></foreignObject></g><g data-depth="3" data-path="1.22.25" class="markmap-node" transform="translate(343, -27.4140625)"><line stroke="#ff7f0e" stroke-width="1.375" x1="-1" x2="308" y1="20.6875" y2="20.6875"/><foreignObject class="markmap-foreign" x="8" y="0" style="opacity: 1;" width="290" height="20"><div xmlns="http://www.w3.org/1999/xhtml"><div xmlns="http://www.w3.org/1999/xhtml">enterprise settings(deploy skill org-wide)</div></div></foreignObject><circle stroke-width="1.5" r="6" stroke="#ff7f0e" fill="var(--markmap-circle-open-bg)" cx="306" cy="20.6875"/></g><g data-depth="4" data-path="1.22.27.28" class="markmap-node" transform="translate(704, 3.9609375)"><line stroke="#e377c2" stroke-width="1.1875" x1="-1" x2="72" y1="20.59375" y2="20.59375"/><foreignObject class="markmap-foreign" x="8" y="0" style="opacity: 1;" width="54" height="20"><div xmlns="http://www.w3.org/1999/xhtml"><div xmlns="http://www.w3.org/1999/xhtml">Explore</div></div></foreignObject></g><g data-depth="4" data-path="1.22.27.29" class="markmap-node" transform="translate(704, 30.1484375)"><line stroke="#7f7f7f" stroke-width="1.1875" x1="-1" x2="49" y1="20.59375" y2="20.59375"/><foreignObject class="markmap-foreign" x="8" y="0" style="opacity: 1;" width="31" height="20"><div xmlns="http://www.w3.org/1999/xhtml"><div xmlns="http://www.w3.org/1999/xhtml">Plan</div></div></foreignObject></g><g data-depth="4" data-path="1.22.27.30" class="markmap-node" transform="translate(704, 56.3359375)"><line stroke="#bcbd22" stroke-width="1.1875" x1="-1" x2="57" y1="20.59375" y2="20.59375"/><foreignObject class="markmap-foreign" x="8" y="0" style="opacity: 1;" width="39" height="20"><div xmlns="http://www.w3.org/1999/xhtml"><div xmlns="http://www.w3.org/1999/xhtml">Verify</div></div></foreignObject></g><g data-depth="3" data-path="1.22.27" class="markmap-node" transform="translate(343, 30.1484375)"><line stroke="#17becf" stroke-width="1.375" x1="-1" x2="283" y1="20.6875" y2="20.6875"/><circle stroke-width="1.5" r="6" stroke="#17becf" fill="var(--markmap-circle-open-bg)" cx="281" cy="20.6875"/><foreignObject class="markmap-foreign" x="8" y="0" style="opacity: 1;" width="265" height="20"><div xmlns="http://www.w3.org/1999/xhtml"><div xmlns="http://www.w3.org/1999/xhtml">build-in agents(can not access skills)</div></div></foreignObject></g><g data-depth="3" data-path="1.22.31" class="markmap-node" transform="translate(343, 87.5234375)"><line stroke="#8c564b" stroke-width="1.375" x1="-1" x2="375" y1="20.6875" y2="20.6875"/><foreignObject class="markmap-foreign" x="8" y="0" style="opacity: 1;" width="357" height="20"><div xmlns="http://www.w3.org/1999/xhtml"><div xmlns="http://www.w3.org/1999/xhtml">custom subagents(load only skills defined in field)</div></div></foreignObject></g><g data-depth="2" data-path="1.22" class="markmap-node" transform="translate(179, 3.6796875)"><line stroke="#e377c2" stroke-width="1.75" x1="-1" x2="86" y1="20.875" y2="20.875"/><foreignObject class="markmap-foreign" x="8" y="0" style="opacity: 1;" width="68" height="20"><div xmlns="http://www.w3.org/1999/xhtml"><div xmlns="http://www.w3.org/1999/xhtml">Distribute</div></div></foreignObject><circle stroke-width="1.5" r="6" stroke="#e377c2" fill="var(--markmap-circle-open-bg)" cx="84" cy="20.875"/></g><g data-depth="4" data-path="1.32.33.34" class="markmap-node" transform="translate(569, 118.8984375)"><line stroke="#bcbd22" stroke-width="1.1875" x1="-1" x2="211" y1="20.59375" y2="20.59375"/><foreignObject class="markmap-foreign" x="8" y="0" style="opacity: 1;" width="193" height="20"><div xmlns="http://www.w3.org/1999/xhtml"><div xmlns="http://www.w3.org/1999/xhtml">load on every conversation</div></div></foreignObject></g><g data-depth="3" data-path="1.32.33" class="markmap-node" transform="translate(381, 118.8984375)"><line stroke="#7f7f7f" stroke-width="1.375" x1="-1" x2="110" y1="20.6875" y2="20.6875"/><circle stroke-width="1.5" r="6" stroke="#7f7f7f" fill="var(--markmap-circle-open-bg)" cx="108" cy="20.6875"/><foreignObject class="markmap-foreign" x="8" y="0" style="opacity: 1;" width="92" height="20"><div xmlns="http://www.w3.org/1999/xhtml"><div xmlns="http://www.w3.org/1999/xhtml">CLAUDE.md</div></div></foreignObject></g><g data-depth="3" data-path="1.32.35" class="markmap-node" transform="translate(381, 145.2734375)"><line stroke="#17becf" stroke-width="1.375" x1="-1" x2="94" y1="20.6875" y2="20.6875"/><foreignObject class="markmap-foreign" x="8" y="0" style="opacity: 1;" width="76" height="20"><div xmlns="http://www.w3.org/1999/xhtml"><div xmlns="http://www.w3.org/1999/xhtml">subagents</div></div></foreignObject></g><g data-depth="3" data-path="1.32.36" class="markmap-node" transform="translate(381, 171.6484375)"><line stroke="#1f77b4" stroke-width="1.375" x1="-1" x2="61" y1="20.6875" y2="20.6875"/><foreignObject class="markmap-foreign" x="8" y="0" style="opacity: 1;" width="43" height="20"><div xmlns="http://www.w3.org/1999/xhtml"><div xmlns="http://www.w3.org/1999/xhtml">hooks</div></div></foreignObject></g><g data-depth="3" data-path="1.32.37" class="markmap-node" transform="translate(381, 198.0234375)"><line stroke="#ff7f0e" stroke-width="1.375" x1="-1" x2="107" y1="20.6875" y2="20.6875"/><foreignObject class="markmap-foreign" x="8" y="0" style="opacity: 1;" width="89" height="20"><div xmlns="http://www.w3.org/1999/xhtml"><div xmlns="http://www.w3.org/1999/xhtml">mcp servers</div></div></foreignObject></g><g data-depth="2" data-path="1.32" class="markmap-node" transform="translate(179, 158.4609375)"><line stroke="#e377c2" stroke-width="1.75" x1="-1" x2="124" y1="20.875" y2="20.875"/><circle stroke-width="1.5" r="6" stroke="#e377c2" fill="var(--markmap-circle-open-bg)" cx="122" cy="20.875"/><foreignObject class="markmap-foreign" x="8" y="0" style="opacity: 1;" width="106" height="20"><div xmlns="http://www.w3.org/1999/xhtml"><div xmlns="http://www.w3.org/1999/xhtml">Other Features</div></div></foreignObject></g><g data-depth="4" data-path="1.38.39.40" class="markmap-node" transform="translate(615, 229.3984375)"><line stroke="#7f7f7f" stroke-width="1.1875" x1="-1" x2="35" y1="20.59375" y2="20.59375"/><foreignObject class="markmap-foreign" x="8" y="0" style="opacity: 1;" width="17" height="20"><div xmlns="http://www.w3.org/1999/xhtml"><div xmlns="http://www.w3.org/1999/xhtml">uv</div></div></foreignObject></g><g data-depth="3" data-path="1.38.39" class="markmap-node" transform="translate(389, 229.3984375)"><line stroke="#d62728" stroke-width="1.375" x1="-1" x2="148" y1="20.6875" y2="20.6875"/><circle stroke-width="1.5" r="6" stroke="#d62728" fill="var(--markmap-circle-open-bg)" cx="146" cy="20.6875"/><foreignObject class="markmap-foreign" x="8" y="0" style="opacity: 1;" width="130" height="20"><div xmlns="http://www.w3.org/1999/xhtml"><div xmlns="http://www.w3.org/1999/xhtml">skills validator tool</div></div></foreignObject></g><g data-depth="4" data-path="1.38.41.42" class="markmap-node" transform="translate(612, 260.7734375)"><line stroke="#ff7f0e" stroke-width="1.1875" x1="-1" x2="82" y1="20.59375" y2="20.59375"/><foreignObject class="markmap-foreign" x="8" y="0" style="opacity: 1;" width="64" height="20"><div xmlns="http://www.w3.org/1999/xhtml"><div xmlns="http://www.w3.org/1999/xhtml">specifics</div></div></foreignObject></g><g data-depth="4" data-path="1.38.41.43" class="markmap-node" transform="translate(612, 286.9609375)"><line stroke="#9467bd" stroke-width="1.1875" x1="-1" x2="153" y1="20.59375" y2="20.59375"/><foreignObject class="markmap-foreign" x="8" y="0" style="opacity: 1;" width="135" height="20"><div xmlns="http://www.w3.org/1999/xhtml"><div xmlns="http://www.w3.org/1999/xhtml">make them distinct</div></div></foreignObject></g><g data-depth="3" data-path="1.38.41" class="markmap-node" transform="translate(389, 273.8671875)"><line stroke="#8c564b" stroke-width="1.375" x1="-1" x2="145" y1="20.6875" y2="20.6875"/><circle stroke-width="1.5" r="6" stroke="#8c564b" fill="var(--markmap-circle-open-bg)" cx="143" cy="20.6875"/><foreignObject class="markmap-foreign" x="8" y="0" style="opacity: 1;" width="127" height="20"><div xmlns="http://www.w3.org/1999/xhtml"><div xmlns="http://www.w3.org/1999/xhtml">check description</div></div></foreignObject></g><g data-depth="4" data-path="1.38.44.45" class="markmap-node" transform="translate(695, 318.1484375)"><line stroke="#8c564b" stroke-width="1.1875" x1="-1" x2="122" y1="22.59375" y2="22.59375"/><foreignObject class="markmap-foreign" x="8" y="0" style="opacity: 1;" width="104" height="22"><div xmlns="http://www.w3.org/1999/xhtml"><div xmlns="http://www.w3.org/1999/xhtml"><code>claude --debug</code></div></div></foreignObject></g><g data-depth="3" data-path="1.38.44" class="markmap-node" transform="translate(389, 319.1484375)"><line stroke="#1f77b4" stroke-width="1.375" x1="-1" x2="228" y1="20.6875" y2="20.6875"/><circle stroke-width="1.5" r="6" stroke="#1f77b4" fill="var(--markmap-circle-open-bg)" cx="226" cy="20.6875"/><foreignObject class="markmap-foreign" x="8" y="0" style="opacity: 1;" width="210" height="20"><div xmlns="http://www.w3.org/1999/xhtml"><div xmlns="http://www.w3.org/1999/xhtml">SKILL.md path/location, case</div></div></foreignObject></g><g data-depth="4" data-path="1.38.46.47" class="markmap-node" transform="translate(714, 351.3359375)"><line stroke="#2ca02c" stroke-width="1.1875" x1="-1" x2="89" y1="22.59375" y2="22.59375"/><foreignObject class="markmap-foreign" x="8" y="0" style="opacity: 1;" width="71" height="22"><div xmlns="http://www.w3.org/1999/xhtml"><div xmlns="http://www.w3.org/1999/xhtml"><code>chmod +x</code></div></div></foreignObject></g><g data-depth="3" data-path="1.38.46" class="markmap-node" transform="translate(389, 352.3359375)"><line stroke="#e377c2" stroke-width="1.375" x1="-1" x2="247" y1="20.6875" y2="20.6875"/><circle stroke-width="1.5" r="6" stroke="#e377c2" fill="var(--markmap-circle-open-bg)" cx="245" cy="20.6875"/><foreignObject class="markmap-foreign" x="8" y="0" style="opacity: 1;" width="229" height="20"><div xmlns="http://www.w3.org/1999/xhtml"><div xmlns="http://www.w3.org/1999/xhtml">runtime errors ~ file permissions</div></div></foreignObject></g><g data-depth="4" data-path="1.38.48.49" class="markmap-node" transform="translate(533, 383.7109375)"><line stroke="#9467bd" stroke-width="1.1875" x1="-1" x2="90" y1="20.59375" y2="20.59375"/><foreignObject class="markmap-foreign" x="8" y="0" style="opacity: 1;" width="72" height="20"><div xmlns="http://www.w3.org/1999/xhtml"><div xmlns="http://www.w3.org/1999/xhtml">enterprise</div></div></foreignObject></g><g data-depth="4" data-path="1.38.48.50" class="markmap-node" transform="translate(533, 409.8984375)"><line stroke="#8c564b" stroke-width="1.1875" x1="-1" x2="80" y1="20.59375" y2="20.59375"/><foreignObject class="markmap-foreign" x="8" y="0" style="opacity: 1;" width="62" height="20"><div xmlns="http://www.w3.org/1999/xhtml"><div xmlns="http://www.w3.org/1999/xhtml">personal</div></div></foreignObject></g><g data-depth="4" data-path="1.38.48.51" class="markmap-node" transform="translate(533, 436.0859375)"><line stroke="#e377c2" stroke-width="1.1875" x1="-1" x2="68" y1="20.59375" y2="20.59375"/><foreignObject class="markmap-foreign" x="8" y="0" style="opacity: 1;" width="50" height="20"><div xmlns="http://www.w3.org/1999/xhtml"><div xmlns="http://www.w3.org/1999/xhtml">project</div></div></foreignObject></g><g data-depth="4" data-path="1.38.48.52" class="markmap-node" transform="translate(533, 462.2734375)"><line stroke="#7f7f7f" stroke-width="1.1875" x1="-1" x2="70" y1="20.59375" y2="20.59375"/><foreignObject class="markmap-foreign" x="8" y="0" style="opacity: 1;" width="52" height="20"><div xmlns="http://www.w3.org/1999/xhtml"><div xmlns="http://www.w3.org/1999/xhtml">plugins</div></div></foreignObject></g><g data-depth="3" data-path="1.38.48" class="markmap-node" transform="translate(389, 422.9921875)"><line stroke="#d62728" stroke-width="1.375" x1="-1" x2="66" y1="20.6875" y2="20.6875"/><circle stroke-width="1.5" r="6" stroke="#d62728" fill="var(--markmap-circle-open-bg)" cx="64" cy="20.6875"/><foreignObject class="markmap-foreign" x="8" y="0" style="opacity: 1;" width="48" height="20"><div xmlns="http://www.w3.org/1999/xhtml"><div xmlns="http://www.w3.org/1999/xhtml">priority</div></div></foreignObject></g><g data-depth="2" data-path="1.38" class="markmap-node" transform="translate(179, 326.1953125)"><line stroke="#2ca02c" stroke-width="1.75" x1="-1" x2="132" y1="20.875" y2="20.875"/><foreignObject class="markmap-foreign" x="8" y="0" style="opacity: 1;" width="114" height="20"><div xmlns="http://www.w3.org/1999/xhtml"><div xmlns="http://www.w3.org/1999/xhtml">Troubleshooting</div></div></foreignObject><circle stroke-width="1.5" r="6" stroke="#2ca02c" fill="var(--markmap-circle-open-bg)" cx="130" cy="20.875"/></g><g data-depth="1" data-path="1" class="markmap-node" transform="translate(0,-10)"><line stroke="#1f77b4" stroke-width="2.5" x1="-1" x2="101" y1="21.25" y2="21.25"/><circle stroke-width="1.5" r="6" stroke="#1f77b4" fill="var(--markmap-circle-open-bg)" cx="99" cy="21.25"/><foreignObject class="markmap-foreign" x="8" y="0" style="opacity: 1;" width="83" height="20"><div xmlns="http://www.w3.org/1999/xhtml"><div xmlns="http://www.w3.org/1999/xhtml">Agent Skills</div></div></foreignObject></g></g></svg>